<svg width="512" height="512" viewBox="0 0 512 512" fill="none" xmlns="http://www.w3.org/2000/svg">
  <defs>
    <linearGradient id="bg-gradient" x1="0" y1="0" x2="512" y2="512" gradientUnits="userSpaceOnUse">
      <stop offset="0%" stop-color="#8B5CF6"/> <!-- Violet 500 -->
      <stop offset="100%" stop-color="#6366F1"/> <!-- Indigo 500 -->
    </linearGradient>
  </defs>
  <rect width="512" height="512" rx="120" fill="url(#bg-gradient)"/>
  
  <!-- Speech Bubble Body -->
  <path d="M128 140C128 117.909 145.909 100 168 100H344C366.091 100 384 117.909 384 140V340C384 362.091 366.091 380 344 380H260L200 420V380H168C145.909 380 128 362.091 128 340V140Z" fill="white"/>

  <!-- Grid Items inside bubble -->
  <!-- Top Left -->
  <rect x="158" y="150" width="80" height="80" rx="16" fill="#FBBF24"/> <!-- Amber -->
  <!-- Top Right -->
  <rect x="274" y="150" width="80" height="80" rx="16" fill="#3B82F6"/> <!-- Blue -->
  <!-- Bottom Left -->
  <rect x="158" y="260" width="80" height="80" rx="16" fill="#EF4444"/> <!-- Red -->
  <!-- Bottom Right -->
  <rect x="274" y="260" width="80" height="80" rx="16" fill="#10B981"/> <!-- Green -->

</svg>
